<?xml version="1.0" encoding="UTF-8"?>
<!DOCTYPE svg PUBLIC "-//W3C//DTD SVG 1.1//EN" "http://www.w3.org/Graphics/SVG/1.1/DTD/svg11.dtd">
<svg version="1.1" xmlns="http://www.w3.org/2000/svg" xmlns:xlink="http://www.w3.org/1999/xlink" x="0" y="0" width="170" height="100" viewBox="0, 0, 170, 100">
  <g id="Layer_1">
    <g>
      <g>
        <path d="M47.148,17.888 L47.763,17.951 Q48.055,17.888 48.389,17.303 Q48.722,16.718 49.035,16.651 Q49.347,16.584 49.998,16.859 Q50.649,17.134 50.705,17.464 Q50.832,18.219 48.491,23.047 Q46.15,27.875 43.325,33.418 Q40.499,38.961 38.27,44.449 Q36.04,49.937 36.357,51.824 Q36.896,55.03 37.598,56.638 L37.803,57.082 Q37.858,57.413 37.15,57.565 Q36.441,57.718 36.025,57.685 Q35.61,57.652 35.004,57.392 Q33.877,56.852 32.913,53.688 Q32.652,52.132 32.676,50.735 Q32.7,49.337 33.32,47.249 Q33.941,45.161 34.583,43.459 Q35.226,41.757 36.961,38.208 Q39.246,33.563 42.133,28.129 Q45.02,22.695 45.299,22.17 Q45.578,21.646 45.562,21.552 Q45.546,21.458 43.591,24.346 Q41.637,27.234 36.895,34.606 Q32.154,41.979 31.087,44.114 Q26.817,52.362 25.923,54.753 Q25.818,55.411 25.297,55.523 Q24.776,55.635 24.224,54.923 Q23.286,53.708 22.937,51.634 Q23.192,48.012 24.725,42.234 Q26.258,36.456 28.361,30.726 L29.836,27.428 Q30.041,26.847 30.017,26.705 L29.968,26.667 Q29.926,26.676 27.409,31.225 Q24.891,35.773 24.434,36.653 L17.371,49.607 Q13.18,57.301 11.075,59.17 Q7.286,61.55 6.484,61.918 Q6.026,62.016 5.994,61.828 Q5.963,61.639 6.308,61.125 Q11.212,52.789 12.468,50.76 Q12.762,50.452 16.933,43.667 Q21.104,36.881 25.937,29.538 Q30.77,22.195 32.976,20.157 Q34.506,19.241 35.319,19.066 Q36.131,18.891 36.219,19.41 Q36.274,19.74 35.97,20.245 Q31.39,31.785 30.758,34.706 L29.127,40.676 Q29.058,41.033 29.082,41.174 Q29.129,41.457 29.197,41.345 Q31.982,37.618 36.418,30.996 Q40.854,24.373 43.272,21.287 Q45.689,18.202 47.148,17.888 z" fill="#0B2E66"/>
        <path d="M49.294,47.085 L49.12,43.995 Q49.096,43.854 49.033,43.867 Q48.971,43.88 48.836,44.105 Q48.405,44.882 47.734,46.028 Q47.063,47.174 45.315,49.236 Q43.567,51.298 42.317,51.567 Q42.1,51.565 41.768,51.514 Q41.436,51.463 40.825,50.911 Q40.213,50.358 40.007,49.132 Q39.801,47.906 41.023,45.029 Q42.245,42.152 44.129,39.23 Q46.013,36.308 48.525,33.911 Q51.037,31.514 53.121,31.065 Q53.921,30.942 54.586,32.069 Q54.923,31.508 55.257,31.436 Q55.59,31.364 56.144,31.832 Q56.402,31.825 56.695,32.03 Q56.989,32.236 57.068,32.708 Q57.148,33.179 56.659,33.87 Q55.99,35.285 55.085,37.092 Q54.179,38.899 53.794,39.691 Q53.409,40.482 53.01,41.448 Q52.339,43.107 52.406,44.021 Q56.269,40.795 64.112,31.191 Q64.543,31.441 64.622,31.912 Q64.701,32.384 64.423,32.786 Q64.145,33.188 63.745,33.762 Q63.345,34.337 62.158,36.009 Q60.971,37.682 59.868,39.214 Q58.766,40.746 57.335,42.642 Q55.905,44.538 54.754,45.91 Q51.98,49.194 51.188,49.364 Q50.397,49.535 49.968,49.041 Q49.539,48.546 49.294,47.085 z M44.709,46.019 Q45.21,45.912 47.384,43.049 Q49.559,40.187 51.463,37.383 L53.408,34.57 Q53.543,34.346 53.531,34.275 Q53.52,34.204 53.394,34.231 Q51.811,34.572 49.613,37.17 Q47.416,39.769 45.946,42.455 Q44.475,45.141 44.61,45.943 Q44.626,46.037 44.709,46.019 z" fill="#0B2E66"/>
        <path d="M58.439,38.032 Q60.43,35.746 62.581,33.133 Q61.073,32.383 60.532,31.473 Q60.351,31.17 60.327,31.029 Q60.169,30.086 60.659,29.663 Q61.149,29.24 62.358,28.979 Q62.817,28.881 65.281,29.669 Q67.746,30.458 68.35,30.328 Q68.955,30.198 69.971,29.564 Q70.987,28.93 71.633,28.791 Q72.279,28.652 72.626,28.919 Q73.93,30.251 73.986,30.581 Q74.041,30.911 73.806,31.182 Q73.571,31.452 72.323,32.893 Q71.075,34.335 69.898,35.809 Q68.721,37.284 67.758,39.006 Q66.795,40.728 66.946,41.624 Q66.97,41.766 67.178,41.721 Q69.429,41.236 80.613,28.129 Q80.904,28.066 81.004,28.655 Q81.103,29.245 78.393,33.419 Q75.683,37.594 72.095,41.811 Q68.507,46.028 66.631,46.431 Q63.714,47.059 63.159,43.758 Q62.858,41.967 63.639,40.064 Q64.42,38.161 67.362,34.596 Q66.654,34.749 65.377,34.608 Q64.101,34.467 63.673,33.973 Q62.772,35.291 60.532,38.412 Q59.994,39.065 58.994,39.28 Q57.994,39.495 57.934,39.142 Q57.875,38.788 58.439,38.032 z" fill="#0B2E66"/>
        <path d="M80.737,39.144 Q82.113,38.848 85.709,35.192 Q89.305,31.535 92.171,28.035 L95.079,24.526 Q95.51,24.776 95.589,25.247 Q95.668,25.719 95.323,26.233 Q94.978,26.747 94.341,27.715 Q93.705,28.682 91.887,31.223 Q90.068,33.765 88.478,35.866 Q84.313,41.404 82.114,42.708 Q81.404,43.105 80.612,43.276 Q79.82,43.446 79.337,43.403 Q78.855,43.361 78.234,43.006 Q76.976,42.201 76.373,38.618 Q76.207,37.628 76.616,35.438 Q77.025,33.249 78.271,30.001 Q79.517,26.752 81.347,23.378 Q83.176,20.003 86.256,16.36 Q89.336,12.717 93.078,10.055 Q93.663,9.684 94.163,9.577 Q94.664,9.469 95.164,9.874 Q95.664,10.28 95.918,10.763 L96.205,11.189 Q96.388,12.274 94.047,16.589 Q91.647,21.063 88.249,25.386 Q84.852,29.708 81.846,32.896 Q79.403,35.572 79.783,37.835 Q80.029,39.297 80.737,39.144 z M82.847,28.576 Q83.889,28.352 88.186,21.417 Q92.483,14.482 92.372,13.822 L92.315,13.737 L91.67,14.266 Q89.772,16.336 86.817,20.979 Q83.862,25.621 82.851,28.087 Q82.724,28.358 82.744,28.476 Q82.764,28.594 82.847,28.576 z" fill="#0B2E66"/>
        <path d="M91.415,37.921 Q92.749,37.634 94.375,35.232 Q96,32.83 95.957,32.057 Q95.378,31.694 94.605,30.565 Q93.832,29.437 93.79,29.446 Q92.728,31.091 92.029,33.098 Q90.953,36.457 91.143,37.589 Q91.207,37.966 91.415,37.921 z M98.475,24.431 Q98.058,24.52 96.991,26.265 Q95.924,28.009 96.019,28.575 Q96.043,28.716 96.364,29.087 Q96.686,29.458 96.811,29.431 Q97.519,29.278 98.09,27.152 Q98.661,25.026 98.61,24.719 Q98.558,24.413 98.475,24.431 z M99.581,30.496 Q100.748,30.244 102.958,28.107 Q105.169,25.97 106.775,23.964 L108.373,21.909 Q108.803,22.159 108.883,22.63 Q108.962,23.102 108.65,23.56 Q102.986,32.255 99.444,33.017 Q99.194,33.071 98.678,33.084 Q95.007,40.275 91.631,41.002 Q89.317,41.109 88.495,39.82 Q88.043,39.184 87.86,38.1 Q87.337,34.988 89.779,29.991 Q92.221,24.995 96.673,21.936 Q97.09,21.846 97.334,22.013 Q97.578,22.181 97.749,22.168 Q97.92,22.156 98.155,21.885 Q98.39,21.615 98.845,21.493 Q99.299,21.37 99.902,21.876 Q100.672,22.345 100.823,23.241 Q101.267,25.882 99.581,30.496 z" fill="#0B2E66"/>
        <path d="M109.562,19.992 Q109.895,19.92 110.73,20.132 Q111.564,20.343 111.644,20.815 Q111.699,21.145 111.546,21.52 L109.245,27.096 Q108.83,27.968 108.846,28.062 Q108.862,28.156 108.903,28.147 L109.088,27.961 Q113.28,23.101 115.923,19.552 Q116.427,18.954 116.823,18.869 Q117.219,18.784 117.36,18.851 L118.59,18.977 Q119.047,19.124 119.11,19.501 Q119.173,19.878 119.046,20.15 Q118.421,21.31 117.61,22.78 Q116.799,24.249 116.406,24.993 Q116.013,25.738 115.522,26.674 Q115.032,27.61 114.832,28.093 Q114.633,28.575 114.391,29.189 Q114.148,29.803 114.087,30.207 Q114.019,31.346 114.154,32.147 Q114.225,32.572 114.705,32.469 Q115.184,32.366 116.344,31.432 Q117.504,30.498 119.046,28.749 Q120.587,27.001 123.101,23.845 Q125.615,20.69 127.531,18.47 Q127.962,18.719 128.041,19.191 Q128.12,19.662 127.808,20.12 Q126.721,21.869 125.047,24.502 Q123.373,27.134 119.803,31.713 Q116.233,36.293 114.566,36.652 Q111.356,37.342 110.706,33.476 Q110.461,32.014 111.191,30.196 L112.516,27.028 Q112.694,26.549 112.682,26.479 Q112.671,26.408 112.46,26.698 Q106.358,35.096 104.555,36.705 Q104.262,37.013 103.761,37.12 Q102.386,37.417 102.148,36.002 Q102.069,35.53 102.214,35.108 Q104.759,31.238 105.668,28.941 Q106.478,27.594 107.242,25.329 Q108.005,23.063 108.554,21.577 Q109.103,20.091 109.562,19.992 z" fill="#0B2E66"/>
      </g>
      <g>
        <path d="M19.696,83.101 Q18.924,78.729 20.74,73.45 Q22.557,68.172 25.891,63.696 Q29.226,59.22 33.668,55.795 Q38.111,52.37 42.387,51.316 Q44.837,50.712 47.148,51.344 Q49.459,51.976 49.892,54.298 Q50.325,56.619 48.482,59.893 Q46.639,63.168 43.734,65.87 Q40.828,68.573 38.379,69.176 Q37.258,69.453 35.922,69.046 Q34.587,68.64 34.351,67.374 Q34.22,66.67 35.12,65.909 Q38.352,63.445 39.858,61.504 Q40.144,60.943 40.331,60.897 Q40.517,60.851 40.587,61.226 Q40.71,61.882 39.464,63.121 Q38.625,64.211 38.643,64.305 Q38.66,64.399 38.702,64.388 Q39.532,64.184 43.094,59.529 Q46.655,54.875 46.463,53.843 Q46.341,53.187 45.22,53.463 Q41.234,54.445 37.521,57.592 Q33.808,60.739 31.231,64.734 Q28.654,68.729 26.749,72.95 Q24.844,77.172 24.046,80.581 Q23.249,83.99 23.564,85.678 Q23.756,86.71 24.628,86.495 Q25.376,86.311 27.478,85.008 Q29.58,83.705 33.416,80.405 Q37.252,77.106 40.61,72.992 Q40.849,72.639 40.952,72.613 Q41.056,72.588 41.091,72.775 Q41.126,72.963 40.662,74.548 Q40.198,76.134 39.1,78.514 Q38.002,80.894 36.488,83.253 Q34.973,85.613 32.591,87.623 Q30.208,89.632 27.986,90.18 Q25.765,90.727 24.332,90.149 Q22.9,89.57 22.074,88.4 Q20.38,86.071 19.903,83.981 z" fill="#0B2E66"/>
        <path d="M49.136,80.749 L48.909,77.666 Q48.882,77.525 48.82,77.541 Q48.758,77.556 48.627,77.784 Q48.209,78.574 47.558,79.74 Q46.907,80.906 45.195,83.02 Q43.483,85.134 42.237,85.441 Q42.021,85.445 41.688,85.405 Q41.355,85.364 40.734,84.831 Q40.113,84.297 39.886,83.078 Q39.658,81.859 40.831,78.946 Q42.003,76.033 43.836,73.055 Q45.669,70.077 48.139,67.605 Q50.61,65.132 52.686,64.62 Q53.483,64.473 54.167,65.579 Q54.495,65.008 54.827,64.926 Q55.16,64.844 55.721,65.294 Q55.979,65.28 56.276,65.476 Q56.574,65.673 56.661,66.142 Q56.748,66.611 56.272,67.317 Q55.628,68.751 54.754,70.585 Q53.88,72.419 53.508,73.221 Q53.137,74.024 52.754,75.001 Q52.112,76.68 52.195,77.591 Q56.002,74.25 63.678,64.412 Q64.113,64.648 64.2,65.117 Q64.288,65.586 64.017,65.996 Q63.746,66.406 63.356,66.993 Q62.966,67.58 61.808,69.287 Q60.65,70.995 59.574,72.56 Q58.497,74.125 57.1,76.064 Q55.703,78.002 54.575,79.408 Q51.859,82.775 51.07,82.97 Q50.281,83.164 49.844,82.683 Q49.407,82.202 49.136,80.749 z M44.534,79.823 Q45.032,79.7 47.157,76.773 Q49.282,73.846 51.137,70.986 L53.034,68.115 Q53.165,67.886 53.151,67.816 Q53.138,67.746 53.014,67.776 Q51.436,68.165 49.284,70.829 Q47.131,73.493 45.708,76.223 Q44.284,78.953 44.433,79.75 Q44.451,79.844 44.534,79.823 z" fill="#0B2E66"/>
        <path d="M58.123,71.422 Q60.075,69.077 62.181,66.4 Q60.66,65.696 60.103,64.803 Q59.917,64.505 59.891,64.365 Q59.716,63.427 60.199,62.989 Q60.682,62.551 61.886,62.254 Q62.342,62.142 64.821,62.855 Q67.299,63.569 67.901,63.42 Q68.503,63.272 69.508,62.607 Q70.513,61.943 71.157,61.784 Q71.801,61.625 72.152,61.882 Q73.479,63.174 73.54,63.502 Q73.601,63.83 73.371,64.108 Q73.14,64.385 71.918,65.864 Q70.695,67.342 69.544,68.852 Q68.392,70.362 67.459,72.113 Q66.526,73.863 66.692,74.754 Q66.719,74.895 66.926,74.843 Q69.168,74.291 80.124,60.849 Q80.415,60.777 80.524,61.363 Q80.634,61.95 77.996,66.205 Q75.359,70.46 71.844,74.784 Q68.33,79.108 66.461,79.568 Q63.555,80.285 62.943,77.002 Q62.61,75.221 63.359,73.295 Q64.107,71.369 66.987,67.717 Q66.281,67.891 65.003,67.789 Q63.724,67.687 63.287,67.206 Q62.409,68.551 60.224,71.738 Q59.697,72.407 58.701,72.653 Q57.704,72.898 57.638,72.547 Q57.573,72.195 58.123,71.422 z" fill="#0B2E66"/>
        <path d="M77.999,71.575 Q78.497,71.452 80.622,68.525 Q82.747,65.598 84.644,62.727 L86.499,59.866 Q86.63,59.638 86.617,59.567 Q86.604,59.497 86.479,59.528 Q84.901,59.917 82.749,62.581 Q80.597,65.245 79.173,67.975 Q77.75,70.704 77.899,71.501 Q77.916,71.595 77.999,71.575 z M85.313,70.508 Q85.339,70.648 85.609,70.582 Q85.879,70.515 87.776,68.576 Q92.749,63.574 99.261,55.642 Q99.696,55.878 99.783,56.347 Q99.871,56.816 99.534,57.34 Q99.198,57.864 98.578,58.851 Q97.959,59.837 96.184,62.433 Q94.41,65.028 92.857,67.177 Q88.788,72.839 86.612,74.209 Q85.908,74.628 85.036,74.843 Q84.179,74.907 83.389,74.513 Q82.599,74.119 82.459,73.369 Q82.32,72.619 82.355,71.065 Q82.391,69.511 82.369,69.394 Q82.348,69.277 82.285,69.292 Q82.223,69.307 82.092,69.536 Q81.675,70.325 81.024,71.491 Q80.372,72.657 78.66,74.771 Q76.948,76.885 75.703,77.193 Q75.486,77.197 75.153,77.156 Q74.82,77.116 74.199,76.582 Q73.579,76.048 73.351,74.829 Q73.124,73.61 74.275,70.702 Q75.427,67.794 77.301,64.806 Q79.176,61.818 81.626,59.351 Q84.075,56.883 86.151,56.372 Q86.898,56.187 87.633,57.331 Q87.53,57.013 89.54,52.422 Q91.55,47.831 94.569,42.942 Q97.587,38.054 99.663,37.542 Q100.369,37.368 100.509,38.118 Q100.728,39.291 99.713,41.65 Q98.698,44.009 97.423,46.138 Q96.148,48.267 94.105,51.517 Q89.37,58.962 87.189,63.914 Q85.007,68.866 85.313,70.508 z" fill="#0B2E66"/>
        <path d="M104.243,54.414 Q103.164,54.68 101.057,57.823 Q98.951,60.966 99.056,61.529 Q99.073,61.623 99.198,61.592 Q100.111,61.367 102.402,58.399 Q104.693,55.431 104.536,54.587 Q104.492,54.352 104.243,54.414 z M98.198,71.599 Q95.001,72.387 94.179,67.979 Q93.663,65.212 95.22,61.567 Q96.776,57.922 99.311,55.212 Q101.846,52.503 104.088,51.951 Q105.084,51.705 106.102,52.386 Q107.119,53.067 107.276,53.911 Q107.565,55.459 105.976,57.886 Q104.388,60.313 102.473,62.035 Q100.557,63.758 99.872,63.927 Q99.187,64.096 98.724,63.474 Q98.532,63.375 98.241,63.446 Q97.95,63.518 97.518,64.924 Q97.085,66.331 97.229,67.104 Q97.374,67.878 97.907,67.943 Q101.063,67.165 104.369,64.168 Q107.675,61.17 113.214,54.312 Q113.601,53.824 114.395,52.843 Q115.189,51.863 115.329,51.681 Q115.764,51.917 115.851,52.386 Q115.939,52.855 115.635,53.322 Q113.996,56.179 111.238,59.9 Q108.479,63.62 104.688,67.277 Q100.897,70.934 98.198,71.599 z" fill="#0B2E66"/>
        <path d="M115.325,50.26 Q115.657,50.178 116.495,50.364 Q117.333,50.55 117.42,51.019 Q117.482,51.347 117.335,51.726 L115.131,57.371 Q114.731,58.254 114.748,58.348 Q114.766,58.441 114.807,58.431 L114.989,58.239 Q119.097,53.254 121.677,49.626 Q122.171,49.014 122.566,48.917 Q122.96,48.819 123.102,48.882 L124.335,48.971 Q124.794,49.103 124.863,49.478 Q124.933,49.853 124.811,50.129 Q124.206,51.308 123.42,52.801 Q122.635,54.295 122.255,55.051 Q121.875,55.806 121.4,56.757 Q120.926,57.708 120.735,58.196 Q120.544,58.685 120.312,59.306 Q120.081,59.927 120.026,60.333 Q119.978,61.473 120.127,62.27 Q120.206,62.692 120.683,62.574 Q121.161,62.457 122.305,61.488 Q123.448,60.519 124.959,58.725 Q126.47,56.93 128.93,53.7 Q131.389,50.469 133.266,48.192 Q133.701,48.428 133.788,48.897 Q133.876,49.366 133.572,49.833 Q132.515,51.614 130.887,54.296 Q129.259,56.978 125.768,61.664 Q122.278,66.35 120.617,66.76 Q117.42,67.548 116.703,63.703 Q116.432,62.249 117.131,60.409 L118.4,57.202 Q118.57,56.719 118.557,56.649 Q118.544,56.578 118.339,56.874 Q112.382,65.454 110.608,67.118 Q110.32,67.434 109.821,67.557 Q108.451,67.894 108.189,66.488 Q108.101,66.019 108.239,65.592 Q110.717,61.647 111.586,59.323 Q112.373,57.952 113.097,55.665 Q113.821,53.377 114.345,51.875 Q114.868,50.373 115.325,50.26 z" fill="#0B2E66"/>
        <path d="M135.249,59.524 L135.022,56.441 Q134.995,56.3 134.933,56.315 Q134.871,56.331 134.74,56.559 Q134.322,57.349 133.671,58.515 Q133.02,59.681 131.308,61.795 Q129.596,63.909 128.35,64.216 Q128.134,64.22 127.801,64.18 Q127.468,64.139 126.847,63.606 Q126.226,63.072 125.999,61.853 Q125.771,60.634 126.944,57.721 Q128.116,54.808 129.949,51.83 Q131.782,48.852 134.252,46.379 Q136.723,43.907 138.799,43.395 Q139.596,43.247 140.28,44.354 Q140.608,43.783 140.94,43.701 Q141.273,43.619 141.834,44.069 Q142.092,44.055 142.389,44.251 Q142.687,44.448 142.774,44.917 Q142.861,45.386 142.385,46.091 Q141.741,47.526 140.867,49.36 Q139.993,51.194 139.621,51.996 Q139.25,52.799 138.867,53.776 Q138.225,55.455 138.308,56.366 Q142.115,53.025 149.791,43.187 Q150.226,43.423 150.313,43.892 Q150.401,44.361 150.13,44.771 Q149.859,45.181 149.469,45.768 Q149.079,46.354 147.921,48.062 Q146.763,49.77 145.687,51.335 Q144.61,52.9 143.213,54.839 Q141.816,56.777 140.688,58.183 Q137.972,61.55 137.183,61.744 Q136.394,61.939 135.957,61.458 Q135.52,60.977 135.249,59.524 z M130.647,58.598 Q131.145,58.475 133.27,55.548 Q135.395,52.621 137.25,49.761 L139.147,46.89 Q139.278,46.661 139.265,46.591 Q139.251,46.521 139.127,46.551 Q137.549,46.94 135.397,49.604 Q133.244,52.268 131.821,54.998 Q130.398,57.728 130.546,58.525 Q130.564,58.619 130.647,58.598 z" fill="#0B2E66"/>
        <path d="M151.194,51.989 Q152.047,49.694 152.165,47.531 Q152.282,45.369 152.055,44.149 Q151.994,43.821 151.558,43.929 Q151.122,44.036 150.637,44.695 L146.081,50.772 Q145.57,51.29 144.822,51.475 Q144.075,51.659 143.961,51.049 Q143.883,50.627 143.96,50.461 Q144.038,50.295 144.475,49.844 Q147.101,46.695 151.41,39.992 Q151.858,38.901 152.356,38.778 Q152.854,38.655 154.082,38.72 Q155.311,38.786 155.398,39.255 Q155.923,42.068 155.895,44.478 Q155.867,46.889 155.612,48.202 Q155.358,49.515 155.375,49.609 Q155.393,49.703 155.476,49.683 Q155.559,49.662 155.782,49.46 Q158.563,46.911 162.627,41.691 L163.466,40.601 Q163.901,40.837 163.989,41.306 Q164.076,41.775 163.773,42.242 Q163.69,42.263 162.002,44.739 Q160.314,47.215 158.235,50.155 Q156.156,53.095 153.649,55.724 Q151.143,58.353 149.565,58.742 Q145.662,59.704 144.674,54.405 Q144.595,53.983 144.841,53.554 Q145.087,53.126 145.585,53.003 Q145.629,53.238 145.949,53.674 Q146.269,54.11 146.58,54.377 Q147.476,54.99 148.908,54.637 Q150.34,54.283 151.194,51.989 z" fill="#0B2E66"/>
      </g>
    </g>
  </g>
</svg>
